<?xml version="1.0" encoding="UTF-8" standalone="no"?>
<!-- Created with Inkscape (http://www.inkscape.org/) -->

<svg
   version="1.1"
   id="svg1"
   width="314.98999"
   height="314.98999"
   viewBox="0 0 314.98999 314.99"
   sodipodi:docname="moddef-logo.svg"
   inkscape:version="1.4.2 (ebf0e940, 2025-05-08)"
   xml:space="preserve"
   xmlns:inkscape="http://www.inkscape.org/namespaces/inkscape"
   xmlns:sodipodi="http://sodipodi.sourceforge.net/DTD/sodipodi-0.dtd"
   xmlns="http://www.w3.org/2000/svg"
   xmlns:svg="http://www.w3.org/2000/svg"><defs
     id="defs1"><inkscape:path-effect
       effect="powerclip"
       message=""
       id="path-effect47"
       is_visible="true"
       lpeversion="1"
       inverse="true"
       flatten="false"
       hide_clip="false" /><inkscape:path-effect
       effect="powerclip"
       message=""
       id="path-effect42"
       is_visible="true"
       lpeversion="1"
       inverse="true"
       flatten="false"
       hide_clip="false" /><clipPath
       clipPathUnits="userSpaceOnUse"
       id="clipPath47"><path
         style="baseline-shift:baseline;display:none;overflow:visible;opacity:1;vector-effect:none;fill:#ffffff;fill-opacity:1;enable-background:accumulate;stop-color:#000000;stop-opacity:1"
         d="m 173.80235,133.05717 c -0.75266,0.0797 -1.48294,0.34444 -2.11719,0.78321 l -0.002,0.002 -50.24024,34.92969 c -7.9e-4,5.4e-4 -0.001,10e-4 -0.002,0.002 -1.37128,0.94459 -2.09706,2.5643 -1.95117,4.17773 0.14506,1.60368 1.15914,2.92552 2.55469,3.61719 l -0.61719,0.42969 c -1.37282,0.94436 -2.0991,2.56534 -1.95313,4.17969 0.14534,1.60647 1.16105,2.93253 2.56055,3.62304 l -0.61133,0.42383 c -7.8e-4,5.4e-4 -10e-4,10e-4 -0.002,0.002 -1.37129,0.9446 -2.09708,2.56427 -1.95117,4.17774 0.1451,1.60405 1.15861,2.92761 2.55469,3.61914 l -0.61719,0.42773 c -7.8e-4,5.4e-4 -10e-4,0.001 -0.002,0.002 -1.3713,0.9446 -2.09708,2.56427 -1.95117,4.17773 0.15199,1.68023 1.22194,3.09756 2.72461,3.75391 l 0.006,0.004 48.44922,20.80274 0.006,0.002 c 0.56973,0.24171 1.17479,0.36524 1.78516,0.36524 0.9635,0 1.93,-0.2947 2.75585,-0.92774 l 48.41797,-36.36328 c 0.001,-8.9e-4 7.6e-4,-0.003 0.002,-0.004 1.33246,-0.98808 1.98132,-2.61188 1.80468,-4.19336 l -0.002,-0.0215 -0.004,-0.0234 c -0.19682,-1.51877 -1.16955,-2.76575 -2.51562,-3.44726 l 0.72266,-0.54297 c 1.33491,-0.98783 1.98342,-2.61244 1.80664,-4.19531 l -0.002,-0.0215 -0.004,-0.0234 c -0.19683,-1.51874 -1.16961,-2.76573 -2.51563,-3.44726 l 0.72266,-0.54297 c 0.32733,-0.24222 0.47799,-0.611 0.7207,-0.91992 l 1.60742,0.45898 -0.48828,-3.76758 c -0.19682,-1.51872 -1.16961,-2.76573 -2.51562,-3.44726 l 0.72265,-0.54297 c 1.33434,-0.9874 1.98271,-2.61297 1.80664,-4.19531 -0.18703,-1.6776 -1.29328,-3.04849 -2.7539,-3.67188 l -0.0117,-0.006 -46.64844,-19.32031 c -0.7238,-0.30896 -1.4993,-0.41561 -2.25195,-0.33594 z"
         id="path47"
         sodipodi:nodetypes="ccccccccccccscccsccccscccccccccccccccscccccccc" /><path
         id="lpe_path-effect47"
         style="baseline-shift:baseline;display:block;overflow:visible;opacity:1;vector-effect:none;fill:#ffffff;fill-opacity:1;enable-background:accumulate;stop-color:#000000;stop-opacity:1"
         class="powerclip"
         d="M 48.237294,53.565091 H 296.69554 V 302.02333 H 48.237294 Z M 173.80235,133.05717 c -0.75266,0.0797 -1.48294,0.34444 -2.11719,0.78321 l -0.002,0.002 -50.24024,34.92969 c -7.9e-4,5.4e-4 -0.001,10e-4 -0.002,0.002 -1.37128,0.94459 -2.09706,2.5643 -1.95117,4.17773 0.14506,1.60368 1.15914,2.92552 2.55469,3.61719 l -0.61719,0.42969 c -1.37282,0.94436 -2.0991,2.56534 -1.95313,4.17969 0.14534,1.60647 1.16105,2.93253 2.56055,3.62304 l -0.61133,0.42383 c -7.8e-4,5.4e-4 -10e-4,10e-4 -0.002,0.002 -1.37129,0.9446 -2.09708,2.56427 -1.95117,4.17774 0.1451,1.60405 1.15861,2.92761 2.55469,3.61914 l -0.61719,0.42773 c -7.8e-4,5.4e-4 -10e-4,0.001 -0.002,0.002 -1.3713,0.9446 -2.09708,2.56427 -1.95117,4.17773 0.15199,1.68023 1.22194,3.09756 2.72461,3.75391 l 0.006,0.004 48.44922,20.80274 0.006,0.002 c 0.56973,0.24171 1.17479,0.36524 1.78516,0.36524 0.9635,0 1.93,-0.2947 2.75585,-0.92774 l 48.41797,-36.36328 c 0.001,-8.9e-4 7.6e-4,-0.003 0.002,-0.004 1.33246,-0.98808 1.98132,-2.61188 1.80468,-4.19336 l -0.002,-0.0215 -0.004,-0.0234 c -0.19682,-1.51877 -1.16955,-2.76575 -2.51562,-3.44726 l 0.72266,-0.54297 c 1.33491,-0.98783 1.98342,-2.61244 1.80664,-4.19531 l -0.002,-0.0215 -0.004,-0.0234 c -0.19683,-1.51874 -1.16961,-2.76573 -2.51563,-3.44726 l 0.72266,-0.54297 c 0.32733,-0.24222 0.47799,-0.611 0.7207,-0.91992 l 1.60742,0.45898 -0.48828,-3.76758 c -0.19682,-1.51872 -1.16961,-2.76573 -2.51562,-3.44726 l 0.72265,-0.54297 c 1.33434,-0.9874 1.98271,-2.61297 1.80664,-4.19531 -0.18703,-1.6776 -1.29328,-3.04849 -2.7539,-3.67188 l -0.0117,-0.006 -46.64844,-19.32031 c -0.7238,-0.30896 -1.4993,-0.41561 -2.25195,-0.33594 z" /></clipPath></defs><sodipodi:namedview
     id="namedview1"
     pagecolor="#ffffff"
     bordercolor="#000000"
     borderopacity="0.25"
     inkscape:showpageshadow="2"
     inkscape:pageopacity="0.0"
     inkscape:pagecheckerboard="0"
     inkscape:deskcolor="#d1d1d1"
     inkscape:zoom="2.4280156"
     inkscape:cx="99.25801"
     inkscape:cy="269.97355"
     inkscape:window-width="2952"
     inkscape:window-height="1634"
     inkscape:window-x="62"
     inkscape:window-y="30"
     inkscape:window-maximized="1"
     inkscape:current-layer="svg1"
     showguides="false" /><g
     id="g48"
     transform="translate(21.100457)"><path
       sodipodi:type="star"
       style="opacity:1;fill:none;stroke:#e3eaec;stroke-width:10;stroke-linecap:square;stroke-dasharray:none;stroke-opacity:1"
       id="path6"
       inkscape:flatsided="true"
       sodipodi:sides="6"
       sodipodi:cx="172.46642"
       sodipodi:cy="177.7942"
       sodipodi:r1="151.72134"
       sodipodi:r2="131.39455"
       sodipodi:arg1="-0.52359878"
       sodipodi:arg2="0"
       inkscape:rounded="0"
       inkscape:randomized="0"
       d="m 303.86095,101.93353 0,151.72135 -131.39453,75.86067 -131.394542,-75.86067 -10e-7,-151.72135 131.394533,-75.860669 z"
       transform="translate(-36.071877,-20.299358)" /><g
       id="g38"
       mask="none"
       clip-path="url(#clipPath47)"
       transform="translate(-36.071877,-20.299358)"
       inkscape:path-effect="#path-effect47"><g
         id="g4"
         style="stroke:#e3eaec;stroke-opacity:1"><path
           style="opacity:1;fill:#517476;fill-opacity:1;stroke:#e3eaec;stroke-width:5;stroke-linecap:square;stroke-dasharray:none;stroke-opacity:1"
           id="path3"
           sodipodi:type="arc"
           sodipodi:cx="172.46642"
           sodipodi:cy="73.825722"
           sodipodi:rx="12.760631"
           sodipodi:ry="12.760631"
           d="m 185.22705,73.825722 a 12.760631,12.760631 0 0 1 -12.76063,12.76063 12.760631,12.760631 0 0 1 -12.76064,-12.76063 12.760631,12.760631 0 0 1 12.76064,-12.760631 12.760631,12.760631 0 0 1 12.76063,12.760631 z" /><path
           style="opacity:1;fill:#517476;fill-opacity:1;stroke:#e3eaec;stroke-width:5;stroke-linecap:square;stroke-dasharray:none;stroke-opacity:1"
           id="circle3"
           sodipodi:type="arc"
           sodipodi:cx="172.46642"
           sodipodi:cy="281.7627"
           sodipodi:rx="12.760631"
           sodipodi:ry="12.760631"
           d="m 185.22705,281.7627 a 12.760631,12.760631 0 0 1 -12.76063,12.76063 12.760631,12.760631 0 0 1 -12.76064,-12.76063 12.760631,12.760631 0 0 1 12.76064,-12.76064 12.760631,12.760631 0 0 1 12.76063,12.76064 z" /><path
           style="opacity:1;fill:none;stroke:#e3eaec;stroke-width:5;stroke-linecap:butt;stroke-dasharray:none;stroke-opacity:1"
           d="M 172.46642,86.586352 V 269.00206"
           id="path4"
           inkscape:original-d="M 172.46642,86.586352 V 269.00206" /></g><g
         id="g5"
         style="stroke:#e3eaec;stroke-opacity:1"><path
           style="opacity:1;fill:#517476;fill-opacity:1;stroke:#e3eaec;stroke-width:5;stroke-linecap:square;stroke-dasharray:none;stroke-opacity:1"
           id="circle4"
           transform="rotate(-90)"
           sodipodi:type="arc"
           sodipodi:cx="-177.7942"
           sodipodi:cy="68.497925"
           sodipodi:rx="12.760631"
           sodipodi:ry="12.760631"
           d="m -165.03357,68.497925 a 12.760631,12.760631 0 0 1 -12.76063,12.76063 12.760631,12.760631 0 0 1 -12.76064,-12.76063 12.760631,12.760631 0 0 1 12.76064,-12.760631 12.760631,12.760631 0 0 1 12.76063,12.760631 z" /><path
           style="opacity:1;fill:#517476;fill-opacity:1;stroke:#e3eaec;stroke-width:5;stroke-linecap:square;stroke-dasharray:none;stroke-opacity:1"
           id="circle5"
           transform="rotate(-90)"
           sodipodi:type="arc"
           sodipodi:cx="-177.7942"
           sodipodi:cy="276.43491"
           sodipodi:rx="12.760631"
           sodipodi:ry="12.760631"
           d="m -165.03357,276.43491 a 12.760631,12.760631 0 0 1 -12.76063,12.76063 12.760631,12.760631 0 0 1 -12.76064,-12.76063 12.760631,12.760631 0 0 1 12.76064,-12.76063 12.760631,12.760631 0 0 1 12.76063,12.76063 z" /><path
           style="opacity:1;fill:none;stroke:#e3eaec;stroke-width:5;stroke-linecap:butt;stroke-dasharray:none;stroke-opacity:1"
           d="M 81.258559,177.7942 H 263.67427"
           id="path5"
           inkscape:original-d="M 81.258559,177.7942 H 263.67427" /></g><g
         id="g33"
         style="stroke:#e3eaec;stroke-opacity:1"><path
           style="opacity:1;fill:#dba856;fill-opacity:1;stroke:#e3eaec;stroke-width:5;stroke-linecap:square;stroke-dasharray:none;stroke-opacity:1"
           id="circle8"
           transform="rotate(-90)"
           sodipodi:type="arc"
           sodipodi:cx="-93.046783"
           sodipodi:cy="123.24883"
           sodipodi:rx="12.760631"
           sodipodi:ry="12.760631"
           d="m -80.286153,123.24883 a 12.760631,12.760631 0 0 1 -12.76063,12.76063 12.760631,12.760631 0 0 1 -12.760627,-12.76063 12.760631,12.760631 0 0 1 12.760627,-12.76063 12.760631,12.760631 0 0 1 12.76063,12.76063 z" /><path
           style="opacity:1;fill:none;stroke:#e3eaec;stroke-width:5;stroke-linecap:butt;stroke-dasharray:none;stroke-opacity:1"
           d="m 130.66748,103.42934 37.13166,41.17597"
           id="path13"
           sodipodi:nodetypes="cc"
           inkscape:original-d="m 130.66748,103.42934 37.13166,41.17597" /></g><g
         id="g34"
         style="stroke:#e3eaec;stroke-opacity:1"><path
           style="opacity:1;fill:none;stroke:#e3eaec;stroke-width:5;stroke-linecap:square;stroke-dasharray:none;stroke-opacity:1"
           id="circle9"
           transform="rotate(-90)"
           sodipodi:type="arc"
           sodipodi:cx="-93.338013"
           sodipodi:cy="219.93661"
           sodipodi:rx="12.760631"
           sodipodi:ry="12.760631"
           d="m -80.577382,219.93661 a 12.760631,12.760631 0 0 1 -12.760631,12.76064 12.760631,12.760631 0 0 1 -12.760627,-12.76064 12.760631,12.760631 0 0 1 12.760627,-12.76063 12.760631,12.760631 0 0 1 12.760631,12.76063 z" /><path
           style="opacity:1;fill:none;stroke:#e3eaec;stroke-width:5;stroke-linecap:butt;stroke-dasharray:none;stroke-opacity:1"
           d="m 211.80845,103.17501 -33.40467,38.34951"
           id="path14"
           sodipodi:nodetypes="cc"
           inkscape:original-d="m 211.80845,103.17501 -33.40467,38.34951" /></g><g
         id="g35"
         style="stroke:#e3eaec;stroke-opacity:1"><path
           style="opacity:1;fill:#dba856;fill-opacity:1;stroke:#e3eaec;stroke-width:5;stroke-linecap:square;stroke-dasharray:none;stroke-opacity:1"
           id="circle10"
           transform="rotate(-90)"
           sodipodi:type="arc"
           sodipodi:cx="-127.70295"
           sodipodi:cy="260.99979"
           sodipodi:rx="12.760631"
           sodipodi:ry="12.760631"
           d="m -114.94232,260.99979 a 12.760631,12.760631 0 0 1 -12.76063,12.76063 12.760631,12.760631 0 0 1 -12.76063,-12.76063 12.760631,12.760631 0 0 1 12.76063,-12.76063 12.760631,12.760631 0 0 1 12.76063,12.76063 z" /><path
           style="opacity:1;fill:none;stroke:#e3eaec;stroke-width:5;stroke-linecap:butt;stroke-dasharray:none;stroke-opacity:1"
           d="m 252.8381,137.51216 -22.42435,22.42435 h -23.05922"
           id="path16"
           inkscape:original-d="m 252.8381,137.51216 -22.42435,22.42435 h -23.05922" /></g><g
         id="g36"
         style="stroke:#e3eaec;stroke-opacity:1"><path
           style="opacity:1;fill:none;fill-opacity:1;stroke:#e3eaec;stroke-width:5;stroke-linecap:square;stroke-dasharray:none;stroke-opacity:1"
           id="circle11"
           transform="rotate(-90)"
           sodipodi:type="arc"
           sodipodi:cx="-228.46793"
           sodipodi:cy="261.29102"
           sodipodi:rx="12.760631"
           sodipodi:ry="12.760631"
           d="m -215.7073,261.29102 a 12.760631,12.760631 0 0 1 -12.76063,12.76063 12.760631,12.760631 0 0 1 -12.76063,-12.76063 12.760631,12.760631 0 0 1 12.76063,-12.76063 12.760631,12.760631 0 0 1 12.76063,12.76063 z" /><path
           style="opacity:1;fill:none;stroke:#e3eaec;stroke-width:5;stroke-linecap:butt;stroke-dasharray:none;stroke-opacity:1"
           d="M 253.0305,218.7418 229.44976,195.16105 H 196.28785"
           id="path17"
           inkscape:original-d="M 253.0305,218.7418 229.44976,195.16105 H 196.28785" /></g><g
         id="g37"
         style="stroke:#e3eaec;stroke-opacity:1"><path
           style="opacity:1;fill:#dba856;fill-opacity:1;stroke:#e3eaec;stroke-width:5;stroke-linecap:square;stroke-dasharray:none;stroke-opacity:1"
           id="circle12"
           transform="rotate(-90)"
           sodipodi:type="arc"
           sodipodi:cx="-262.2504"
           sodipodi:cy="219.64537"
           sodipodi:rx="12.760631"
           sodipodi:ry="12.760631"
           d="m -249.48977,219.64537 a 12.760631,12.760631 0 0 1 -12.76063,12.76063 12.760631,12.760631 0 0 1 -12.76063,-12.76063 12.760631,12.760631 0 0 1 12.76063,-12.76063 12.760631,12.760631 0 0 1 12.76063,12.76063 z" /><path
           style="opacity:1;fill:none;stroke:#e3eaec;stroke-width:5;stroke-linecap:butt;stroke-dasharray:none;stroke-opacity:1"
           d="M 212.7992,251.48176 175.21371,213.36959"
           id="path18"
           sodipodi:nodetypes="cc"
           inkscape:original-d="M 212.7992,251.48176 175.21371,213.36959" /></g><g
         id="g32"
         style="stroke:#e3eaec;stroke-opacity:1"><path
           style="opacity:1;fill:none;fill-opacity:1;stroke:#e3eaec;stroke-width:5;stroke-linecap:square;stroke-dasharray:none;stroke-opacity:1"
           id="circle13"
           transform="rotate(-90)"
           sodipodi:type="arc"
           sodipodi:cx="-261.66794"
           sodipodi:cy="123.54004"
           sodipodi:rx="12.760631"
           sodipodi:ry="12.760631"
           d="m -248.90731,123.54004 a 12.760631,12.760631 0 0 1 -12.76063,12.76063 12.760631,12.760631 0 0 1 -12.76063,-12.76063 12.760631,12.760631 0 0 1 12.76063,-12.76063 12.760631,12.760631 0 0 1 12.76063,12.76063 z" /><path
           style="opacity:1;fill:none;stroke:#e3eaec;stroke-width:5;stroke-linecap:butt;stroke-dasharray:none;stroke-opacity:1"
           d="m 130.57863,251.02407 36.60285,-37.53029"
           id="path19"
           sodipodi:nodetypes="cc"
           inkscape:original-d="m 130.57863,251.02407 36.60285,-37.53029" /></g><g
         id="g31"
         style="stroke:#e3eaec;stroke-opacity:1"><path
           style="opacity:1;fill:#dba856;fill-opacity:1;stroke:#e3eaec;stroke-width:5;stroke-linecap:square;stroke-dasharray:none;stroke-opacity:1"
           id="circle7"
           transform="rotate(-90)"
           sodipodi:type="arc"
           sodipodi:cx="-228.46793"
           sodipodi:cy="81.311966"
           sodipodi:rx="12.760631"
           sodipodi:ry="12.760631"
           d="m -215.7073,81.311966 a 12.760631,12.760631 0 0 1 -12.76063,12.760631 12.760631,12.760631 0 0 1 -12.76063,-12.760631 12.760631,12.760631 0 0 1 12.76063,-12.760631 12.760631,12.760631 0 0 1 12.76063,12.760631 z" /><path
           style="opacity:1;fill:none;stroke:#e3eaec;stroke-width:5;stroke-linecap:butt;stroke-dasharray:none;stroke-opacity:1"
           d="m 89.907743,219.03679 23.938177,-23.93818 h 34.09804"
           id="path20"
           inkscape:original-d="m 89.907743,219.03679 23.938177,-23.93818 h 34.09804" /></g><g
         id="g30"
         style="stroke:#e3eaec;stroke-opacity:1"><path
           style="opacity:1;fill:none;fill-opacity:1;stroke:#e3eaec;stroke-width:5;stroke-linecap:square;stroke-dasharray:none;stroke-opacity:1"
           id="circle6"
           transform="rotate(-90)"
           sodipodi:type="arc"
           sodipodi:cx="-127.70294"
           sodipodi:cy="81.603195"
           sodipodi:rx="12.760631"
           sodipodi:ry="12.760631"
           d="m -114.94231,81.603195 a 12.760631,12.760631 0 0 1 -12.76063,12.760631 12.760631,12.760631 0 0 1 -12.76063,-12.760631 12.760631,12.760631 0 0 1 12.76063,-12.76063 12.760631,12.760631 0 0 1 12.76063,12.76063 z" /><path
           style="opacity:1;fill:none;stroke:#e3eaec;stroke-width:5;stroke-linecap:butt;stroke-dasharray:none;stroke-opacity:1"
           d="m 89.641692,137.61335 22.667308,22.66731 42.52116,0.0299"
           id="path21"
           sodipodi:nodetypes="ccc"
           inkscape:original-d="m 89.641692,137.61335 22.667308,22.66731 42.52116,0.0299" /></g></g><g
       id="g29"
       transform="matrix(1.0100841,0,0,1.0100841,25.258659,-6.989354)"
       style="display:inline;fill:#e3eaec;fill-opacity:1"
       inkscape:label="stack"><path
         d="m 160.03151,150.07449 c -0.0937,-0.72266 -0.57031,-1.3477 -1.2383,-1.6328 l -3.6875,-1.5234 4.1328,-3.1016 c 0.58594,-0.43359 0.88281,-1.1562 0.80078,-1.8906 -0.082,-0.73438 -0.57031,-1.3477 -1.2383,-1.6328 l -46.195,-19.133 c -0.64062,-0.27344 -1.375,-0.19141 -1.9453,0.20312 l -49.745999,34.586 c -0.61328,0.42188 -0.9375,1.1406 -0.87109,1.875 0.06641,0.7344 0.54297,1.375 1.2227,1.6719 l 3.8633,1.6602 -4.2305,2.9375 c -0.61328,0.42188 -0.9375,1.1406 -0.87109,1.875 0.06641,0.7344 0.54297,1.375 1.2227,1.6719 l 3.875,1.6602 -4.2305,2.9375 c -0.61328,0.42188 -0.9375,1.1406 -0.87109,1.875 0.06641,0.73438 0.54297,1.375 1.2227,1.6719 l 3.8633,1.6602 -4.2305,2.9375 c -0.61328,0.42188 -0.9375,1.1406 -0.87109,1.875 0.06641,0.73438 0.54297,1.375 1.2227,1.6719 l 47.952999,20.59 c 0.25781,0.10938 0.53125,0.16406 0.80078,0.16406 0.43359,0 0.87109,-0.13672 1.2227,-0.40625 l 47.969,-36.027 c 0.58594,-0.43359 0.88281,-1.1562 0.80078,-1.8906 -0.0937,-0.72266 -0.57031,-1.3477 -1.2383,-1.6328 l -3.6875,-1.5234 4.1328,-3.1016 c 0.58594,-0.43359 0.88281,-1.1562 0.80078,-1.8906 -0.0937,-0.72266 -0.57031,-1.3477 -1.2383,-1.6328 l -3.6875,-1.5234 4.1328,-3.1016 c 0.58594,-0.43359 0.88281,-1.1562 0.80078,-1.8906 z m -6.1055,0.77344 -4.1328,3.1016 -40.039,30.07 -43.491999,-18.672 3.293,-2.2852 21.812,9.3711 c 0,0 0.03906,0.0117 0.06641,0.0273 0.13672,0.0547 0.28516,0.10937 0.42188,0.16406 0.47656,0.19141 0.9375,0.37891 1.4141,0.55859 0.28516,0.10938 0.57031,0.20312 0.85547,0.30078 0.39453,0.13672 0.78906,0.25781 1.1836,0.36719 0.28516,0.082 0.58594,0.17578 0.87109,0.24609 0.44922,0.12109 0.89844,0.23047 1.3477,0.32812 0.23047,0.0547 0.46094,0.10938 0.69531,0.16406 0.65234,0.13672 1.3047,0.24609 1.956999,0.33984 0.24609,0.0391 0.50391,0.0664 0.74609,0.0937 0.44922,0.0547 0.89844,0.10937 1.3594,0.14844 0.27344,0.0273 0.54297,0.0391 0.81641,0.0547 0.46094,0.0273 0.9375,0.0547 1.4023,0.0547 0.23047,0 0.46094,0.0117 0.69531,0.0117 h 0.17578 c 0.16406,0 0.32812,-0.0117 0.48828,-0.0117 0.66797,0 1.332,-0.0273 2,-0.082 0.30078,-0.0273 0.58594,-0.0547 0.88281,-0.082 0.58594,-0.0547 1.168,-0.12109 1.7539,-0.21875 0.30078,-0.0391 0.61328,-0.082 0.91016,-0.13672 0.61328,-0.10938 1.2227,-0.23047 1.8359,-0.36719 0.24609,-0.0547 0.50391,-0.10938 0.74609,-0.16406 0.82812,-0.20312 1.6602,-0.44922 2.4883,-0.70703 0.20312,-0.0664 0.40625,-0.14844 0.625,-0.21875 0.61328,-0.21875 1.2227,-0.43359 1.8359,-0.67969 0.3125,-0.12109 0.625,-0.27344 0.9375,-0.40625 0.48828,-0.21875 0.98047,-0.44922 1.4688,-0.69531 0.32812,-0.16406 0.65234,-0.32813 0.96484,-0.50391 0.47656,-0.25781 0.9375,-0.53125 1.4141,-0.80078 0.30078,-0.17578 0.59766,-0.35547 0.89844,-0.54297 0.58594,-0.36719 1.1562,-0.77344 1.7148,-1.1836 0.14844,-0.10938 0.30078,-0.19141 0.43359,-0.30078 l 24.508,-18.414 2.6094,1.0898 z m -45.887,20.238 c -2.6367,0.21875 -5.3164,0.10937 -7.9414,-0.33984 3.5352,-1.332 6.543,-3.293 9.0859,-5.9141 0.625,-0.65234 1.6328,-0.69531 2.3398,-0.082 1.7422,1.4805 3.875,3.0195 6.5703,3.8086 -3.1953,1.4023 -6.582,2.2422 -10.035,2.543 z m 4.0391,-45.738 41.848,17.352 -4.1211,3.1016 -25.094,18.836 c -3.9023,0.98047 -6.8945,0.12109 -10.539,-3.0039 -2.3398,-2 -5.8203,-1.8477 -7.9297,0.35547 -3.4141,3.5508 -7.929699,5.6562 -13.776999,6.4453 l -26.207,-11.234 45.815999,-31.852 z m 41.832,41.793 -44.16,33.172 -43.491999,-18.672 3.293,-2.2852 39.671999,17.027 c 0.14844,0.0664 0.3125,0.10938 0.47656,0.13672 0.0391,0 0.0937,0 0.13672,0.0117 0.0664,0 0.13672,0.0117 0.19141,0.0117 0.0391,0 0.0664,-0.0117 0.10938,-0.0117 0.13672,0 0.27344,-0.0273 0.39453,-0.0664 0.0664,-0.0117 0.12109,-0.0273 0.19141,-0.0547 0.19141,-0.0664 0.36719,-0.16406 0.53125,-0.28516 l 40.051,-30.082 2.6094,1.0898 z m 0,-8.1445 -4.1328,3.1016 -40.039,30.07 -43.491999,-18.672 3.293,-2.2852 39.671999,17.027 c 0.14844,0.0664 0.3125,0.10938 0.46094,0.13672 0.0547,0 0.0937,0 0.14844,0.0117 0.0664,0 0.12109,0.0117 0.19141,0.0117 0.0273,0 0.0664,-0.0117 0.0937,-0.0117 0.13672,0 0.27344,-0.0273 0.40625,-0.0664 0.0664,-0.0117 0.12109,-0.0273 0.19141,-0.0391 0.19141,-0.0664 0.36719,-0.16406 0.53125,-0.28516 l 40.051,-30.082 2.6094,1.0898 z"
         id="path26"
         style="fill:#e3eaec;fill-opacity:1;stroke:none;stroke-opacity:1" /><path
         d="m 111.47751,135.46549 27.172,11.273 c 0.25781,0.10938 0.51562,0.14844 0.77344,0.14844 0.80078,0 1.5625,-0.47656 1.8906,-1.2656 0.43359,-1.0469 -0.0664,-2.2305 -1.1016,-2.6641 l -27.172,-11.273 c -1.0469,-0.43359 -2.2305,0.0664 -2.6641,1.1016 -0.43359,1.0469 0.0664,2.2305 1.1016,2.6641 z"
         id="path27"
         style="fill:#e3eaec;fill-opacity:1;stroke:none;stroke-opacity:1" /><path
         d="m 102.58251,141.11049 27.172,11.273 c 0.25781,0.10938 0.51562,0.14844 0.77344,0.14844 0.80078,0 1.5625,-0.47656 1.8906,-1.2656 0.43359,-1.0469 -0.0664,-2.2305 -1.1016,-2.6641 l -27.172,-11.273 c -1.0469,-0.43359 -2.2305,0.0664 -2.6641,1.1016 -0.43359,1.0469 0.0664,2.2305 1.1016,2.6641 z"
         id="path28"
         style="fill:#517476;fill-opacity:1;stroke:none;stroke-opacity:1" /><path
         d="m 93.703511,146.74249 27.171999,11.273 c 0.25781,0.10938 0.51562,0.14844 0.77344,0.14844 0.80078,0 1.5625,-0.47656 1.8906,-1.2656 0.43359,-1.0469 -0.0664,-2.2305 -1.1016,-2.6641 l -27.171999,-11.273 c -1.0469,-0.43359 -2.2305,0.0664 -2.6641,1.1016 -0.43359,1.0469 0.06641,2.2305 1.1016,2.6641 z"
         id="path29"
         style="fill:#dba856;fill-opacity:1;stroke:none;stroke-opacity:1" /></g></g></svg>
